<svg width="800" height="600" viewBox="0 0 800 600" xmlns="http://www.w3.org/2000/svg" role="img" aria-labelledby="title desc">
  <title id="title">Sunrise Chase</title>
  <desc id="desc">A dreamy sunrise over mountains with floating petals.</desc>
  <defs>
    <linearGradient id="bg4" x1="0%" y1="0%" x2="0%" y2="100%">
      <stop offset="0%" stop-color="#ff6f91" />
      <stop offset="70%" stop-color="#014034" />
    </linearGradient>
    <linearGradient id="sunrise" x1="0" y1="0" x2="1" y2="1">
      <stop offset="0%" stop-color="#f5e6cc" />
      <stop offset="100%" stop-color="#b8860b" />
    </linearGradient>
  </defs>
  <rect width="800" height="600" rx="48" fill="url(#bg4)" />
  <circle cx="400" cy="220" r="130" fill="url(#sunrise)" opacity="0.85" />
  <path d="M0 360 Q120 280 240 360 T480 360 T720 360 T960 360 L960 600 L0 600Z" fill="#013026" opacity="0.9" />
  <path d="M0 420 Q150 320 300 420 T600 420 T900 420 L900 600 L0 600Z" fill="#001f1a" opacity="0.9" />
  <g fill="#f5e6cc" opacity="0.6">
    <path d="M150 180 C130 160 170 120 190 140 C170 140 170 180 150 180Z" />
    <path d="M640 160 C620 140 660 110 680 130 C660 130 660 170 640 160Z" />
    <path d="M460 120 C440 100 480 80 500 100 C480 100 480 140 460 120Z" />
  </g>
  <text x="400" y="550" text-anchor="middle" font-family="'Dancing Script', cursive" font-size="48" fill="#f5e6cc">Chasing dawn with you</text>
</svg>